<svg width="79" height="39" viewBox="0 0 79 39" fill="none" xmlns="http://www.w3.org/2000/svg">
<g id="UnojobsColored 1" clip-path="url(#clip0_1417_6601)">
<g id="Group">
<g id="Group_2">
<g id="Group_3">
<path id="Vector" d="M24.449 13.9701H24.4182C24.3566 15.427 24.0796 16.8531 23.5564 18.2176C22.9921 19.695 22.1713 21.0391 21.094 22.2087C20.027 23.3475 18.7753 24.2504 17.3492 24.8967C15.8718 25.5636 14.3021 25.8817 12.6811 25.8714C11.06 25.8714 9.49027 25.5533 8.02313 24.8865C6.59703 24.2401 5.34534 23.3372 4.28858 22.1882C3.21131 21.0288 2.40079 19.6745 1.83651 18.1971C1.303 16.8223 1.02599 15.3962 0.974688 13.9393H0.943909L0.984948 3.7514C0.984948 2.63309 1.72365 1.89439 2.84196 1.90465H3.7756C4.89391 1.90465 5.63261 2.64335 5.62235 3.76166L5.59157 13.9496H5.57105C5.62235 14.8011 5.78651 15.6424 6.08404 16.453C6.42261 17.3763 6.91508 18.2279 7.5717 18.9666C8.2078 19.6848 8.96703 20.2491 9.8391 20.6492C10.742 21.0698 11.6961 21.2648 12.6811 21.2648C13.6762 21.2648 14.6304 21.0801 15.5333 20.6595C16.4053 20.2491 17.1646 19.695 17.8007 18.9769C18.4573 18.2382 18.9498 17.3866 19.2883 16.4632C19.5859 15.6527 19.7603 14.8114 19.8116 13.9598H19.7911L19.7808 3.77192C19.7808 2.66387 20.5195 1.92517 21.6378 1.92517H22.5714C23.6898 1.92517 24.4285 2.66387 24.4182 3.78218L24.449 13.9701Z" fill="url(#paint0_linear_1417_6601)"/>
<path id="Vector_2" d="M50.8986 13.3749L50.8575 23.8912C50.8575 25.0095 50.1188 25.7482 49.0005 25.7379H48.0669C46.9486 25.7379 46.2099 24.9992 46.2201 23.8809L46.2509 13.3647H46.2714C46.2201 12.5131 46.056 11.6718 45.7584 10.8613C45.4199 9.93793 44.9274 9.08637 44.2708 8.34767C43.6347 7.62949 42.8754 7.0652 42.0034 6.66507C41.1005 6.24442 40.1463 6.04948 39.1614 6.04948C38.1662 6.04948 37.2121 6.23416 36.3092 6.65481C35.4371 7.0652 34.6779 7.61923 34.0418 8.33741C33.3852 9.07611 32.8927 9.92767 32.5541 10.851C32.2566 11.6616 32.0822 12.5029 32.0309 13.3544H32.0514L32.0617 23.8707C32.0617 24.9787 31.323 25.7174 30.2047 25.7174H29.271C28.1527 25.7174 27.414 24.9787 27.4243 23.8604L27.3935 13.3544H27.4243C27.4858 11.8975 27.7628 10.4714 28.2861 9.10689C28.8504 7.62948 29.6712 6.28546 30.7484 5.11585C31.8154 3.97702 33.0671 3.07416 34.4932 2.4278C35.9706 1.76091 37.5404 1.44286 39.1614 1.45312C40.7825 1.45312 42.3522 1.77117 43.8193 2.43806C45.2454 3.09468 46.4971 3.98728 47.5539 5.13637C48.6312 6.29572 49.4417 7.65 50.006 9.12741C50.5292 10.492 50.8062 11.9181 50.8575 13.3749H50.8986Z" fill="url(#paint1_linear_1417_6601)"/>
<path id="Vector_3" d="M77.974 13.4981C77.974 15.1601 77.6765 16.7812 77.0404 18.3201C76.435 19.7873 75.604 21.121 74.5165 22.2701C73.4289 23.4295 72.1362 24.3221 70.6793 24.9582C69.1506 25.6251 67.5296 25.9329 65.8675 25.9329C64.2054 25.9329 62.5946 25.6251 61.0762 24.9479C59.6296 24.3016 58.3471 23.409 57.2698 22.2599C56.1823 21.1108 55.3513 19.777 54.7459 18.3099C54.1201 16.7709 53.8226 15.1499 53.8226 13.4775C53.8226 11.8155 54.1201 10.1944 54.7562 8.65546C55.3615 7.18831 56.1926 5.85455 57.2904 4.70546C58.3779 3.55637 59.6604 2.66377 61.107 2.01741C62.6254 1.34026 64.2362 1.03247 65.8983 1.03247C67.5604 1.03247 69.1814 1.34026 70.7101 2.01741C72.167 2.66377 73.4495 3.55637 74.5472 4.71572C75.6348 5.86481 76.4658 7.19857 77.0609 8.66572C77.6867 10.2047 77.974 11.836 77.974 13.4981ZM73.3776 13.4878C73.3776 12.431 73.193 11.4051 72.8134 10.4201C72.444 9.49676 71.931 8.65546 71.2539 7.92702C70.5767 7.20883 69.7867 6.65481 68.8941 6.24442C67.9605 5.81351 66.9756 5.62883 65.9496 5.62883C64.9236 5.62883 63.9387 5.81351 63.005 6.24442C62.1124 6.65481 61.3122 7.20883 60.635 7.91676C59.9476 8.6452 59.4346 9.4865 59.0653 10.4099C58.6549 11.3948 58.4805 12.4208 58.4805 13.4775C58.4805 14.5343 58.6652 15.5603 59.0448 16.5452C59.4141 17.4686 59.9271 18.3099 60.6145 19.0383C61.2917 19.7565 62.0817 20.3105 62.9743 20.7209C63.9079 21.1518 64.8928 21.3365 65.9188 21.3365C66.9448 21.3365 67.9297 21.1518 68.8634 20.7209C69.7559 20.3105 70.5562 19.7565 71.2333 19.0486C71.9208 18.3304 72.4337 17.4891 72.8031 16.5555C73.193 15.5705 73.3776 14.5445 73.3776 13.4878Z" fill="url(#paint2_linear_1417_6601)"/>
</g>
</g>
<g id="Group_4">
<path id="Vector_4" d="M49.5545 35.772C49.5545 36.1413 49.5135 36.4799 49.4211 36.7774C49.3288 37.0749 49.1954 37.3314 49.0108 37.5366C48.8261 37.7418 48.6004 37.906 48.3336 38.0188C48.0669 38.1317 47.7488 38.183 47.3897 38.183C47.2256 38.183 47.0614 38.1727 46.9075 38.1522C46.7536 38.1317 46.5792 38.1009 46.4048 38.0599L46.4663 37.3314C46.4766 37.2596 46.4971 37.2083 46.5382 37.1673C46.5792 37.1262 46.651 37.1057 46.7331 37.1057C46.7844 37.1057 46.8562 37.116 46.9383 37.1365C47.0204 37.157 47.123 37.1673 47.2563 37.1673C47.4308 37.1673 47.5847 37.1468 47.718 37.0955C47.8514 37.0442 47.9643 36.9621 48.0566 36.8595C48.1489 36.7466 48.2105 36.603 48.2618 36.4286C48.3028 36.2542 48.3336 36.0387 48.3336 35.7925V31.5039H49.5648V35.772H49.5545Z" fill="#001D35"/>
<path id="Vector_5" d="M60.5119 34.8073C60.5119 35.2895 60.4298 35.741 60.2656 36.1514C60.1015 36.5618 59.8758 36.9208 59.5885 37.2184C59.3012 37.5159 58.9421 37.7519 58.5317 37.9263C58.1213 38.1007 57.6699 38.1828 57.1672 38.1828C56.6645 38.1828 56.213 38.1007 55.8026 37.9263C55.3923 37.7519 55.0332 37.5262 54.7459 37.2184C54.4484 36.9208 54.2226 36.5618 54.0585 36.1514C53.8943 35.741 53.8123 35.2895 53.8123 34.8073C53.8123 34.3251 53.8943 33.8737 54.0585 33.4633C54.2226 33.0529 54.4484 32.6938 54.7459 32.3963C55.0434 32.0988 55.3923 31.8628 55.8026 31.6884C56.213 31.5242 56.6747 31.4319 57.1672 31.4319C57.6699 31.4319 58.1213 31.514 58.5317 31.6884C58.9421 31.8628 59.291 32.0988 59.5885 32.3963C59.8758 32.6938 60.1117 33.0529 60.2656 33.4633C60.4298 33.884 60.5119 34.3251 60.5119 34.8073ZM59.2499 34.8073C59.2499 34.4482 59.1986 34.1199 59.1063 33.8327C59.0139 33.5454 58.8703 33.2992 58.6959 33.1042C58.5112 32.899 58.2958 32.7451 58.0393 32.6425C57.7828 32.5399 57.4955 32.4784 57.1672 32.4784C56.8491 32.4784 56.5516 32.5297 56.2951 32.6425C56.0386 32.7451 55.8129 32.899 55.6385 33.1042C55.4538 33.3094 55.3204 33.5454 55.2178 33.8327C55.1152 34.1199 55.0742 34.4482 55.0742 34.8073C55.0742 35.1664 55.1255 35.4947 55.2178 35.782C55.3102 36.0693 55.4538 36.3155 55.6385 36.5105C55.8232 36.7054 56.0386 36.8593 56.2951 36.9721C56.5516 37.0747 56.8491 37.1363 57.1672 37.1363C57.4852 37.1363 57.7828 37.085 58.0393 36.9721C58.2958 36.8695 58.5112 36.7157 58.6959 36.5105C58.8806 36.3155 59.0139 36.0693 59.1063 35.782C59.2089 35.505 59.2499 35.1767 59.2499 34.8073Z" fill="#001D35"/>
<path id="Vector_6" d="M64.7698 38.1112V31.5039H67.0474C67.4783 31.5039 67.8477 31.5449 68.1555 31.627C68.4633 31.7091 68.7095 31.822 68.9045 31.9759C69.0994 32.1297 69.243 32.3144 69.3354 32.5299C69.4277 32.7453 69.4687 32.9916 69.4687 33.2583C69.4687 33.4122 69.4482 33.5661 69.3969 33.6995C69.3456 33.8329 69.2841 33.9765 69.1815 34.0996C69.0891 34.2227 68.966 34.3356 68.8121 34.4382C68.6685 34.5408 68.4838 34.6229 68.2889 34.6947C69.1917 34.8999 69.6534 35.3923 69.6534 36.1618C69.6534 36.4388 69.6021 36.7056 69.4893 36.9416C69.3867 37.1775 69.2225 37.3827 69.0276 37.5572C68.8224 37.7316 68.5761 37.8649 68.2786 37.9573C67.9811 38.0599 67.6425 38.1009 67.2526 38.1009H64.7698V38.1112ZM66.0009 34.3664H66.9859C67.4065 34.3664 67.7246 34.2946 67.94 34.1407C68.1555 33.9868 68.2683 33.7508 68.2683 33.4122C68.2683 33.0634 68.1658 32.8274 67.9811 32.6735C67.7861 32.5299 67.4783 32.4581 67.068 32.4581H66.0215V34.3664H66.0009ZM66.0009 35.2179V37.157H67.2526C67.4783 37.157 67.6733 37.1262 67.8272 37.0749C67.9811 37.0236 68.1042 36.9518 68.1965 36.8595C68.2889 36.7672 68.3607 36.6646 68.4017 36.5414C68.4428 36.4183 68.4633 36.2952 68.4633 36.1516C68.4633 36.0079 68.4428 35.8746 68.3915 35.7617C68.3504 35.6488 68.2786 35.5462 68.176 35.4744C68.0734 35.3923 67.9503 35.3308 67.7964 35.2897C67.6425 35.2487 67.4578 35.2282 67.2424 35.2282H66.0009V35.2179Z" fill="#001D35"/>
<path id="Vector_7" d="M77.5534 32.7143C77.5226 32.7862 77.4815 32.8272 77.4405 32.858C77.3995 32.8888 77.3482 32.899 77.2866 32.899C77.225 32.899 77.1532 32.8785 77.0814 32.8272C77.0096 32.7759 76.9173 32.7246 76.8147 32.6733C76.7121 32.622 76.5889 32.5604 76.4556 32.5194C76.3119 32.4681 76.158 32.4476 75.9631 32.4476C75.7887 32.4476 75.645 32.4681 75.5219 32.5091C75.3988 32.5502 75.286 32.6117 75.2039 32.6836C75.1218 32.7554 75.05 32.8477 75.0089 32.9503C74.9679 33.0529 74.9474 33.1658 74.9474 33.2889C74.9474 33.4428 74.9884 33.5762 75.0808 33.6788C75.1628 33.7814 75.286 33.8737 75.4296 33.9455C75.5732 34.0173 75.7374 34.0891 75.9221 34.1404C76.1067 34.202 76.2914 34.2636 76.4863 34.3251C76.6813 34.3867 76.866 34.4688 77.0506 34.5508C77.2353 34.6329 77.3995 34.7458 77.5431 34.8791C77.6867 35.0125 77.7996 35.1767 77.8919 35.3614C77.974 35.5563 78.0253 35.782 78.0253 36.059C78.0253 36.3565 77.974 36.6336 77.8714 36.9003C77.7688 37.1568 77.6252 37.3928 77.42 37.5775C77.225 37.7724 76.9788 37.9263 76.7018 38.0391C76.4145 38.152 76.0965 38.2033 75.7271 38.2033C75.5219 38.2033 75.3065 38.1828 75.1013 38.1417C74.8961 38.1007 74.7011 38.0391 74.5165 37.9673C74.3318 37.8955 74.1574 37.8032 73.9932 37.6903C73.8291 37.5877 73.6854 37.4646 73.5521 37.3312L73.8701 36.7362C73.9009 36.6951 73.9419 36.6541 73.9932 36.6336C74.0445 36.6028 74.0958 36.5925 74.1471 36.5925C74.2189 36.5925 74.301 36.6233 74.3934 36.6849C74.4857 36.7464 74.5883 36.8182 74.7114 36.8901C74.8345 36.9619 74.9782 37.0337 75.1321 37.0953C75.2962 37.1568 75.4912 37.1876 75.7169 37.1876C76.0657 37.1876 76.3427 37.1055 76.5274 36.9414C76.7223 36.7772 76.8147 36.5412 76.8147 36.2232C76.8147 36.0488 76.7736 35.9051 76.6813 35.8025C76.5992 35.6897 76.4761 35.5973 76.3325 35.5255C76.1888 35.4537 76.0247 35.3921 75.84 35.3408C75.6553 35.2895 75.4706 35.228 75.286 35.1767C75.1013 35.1151 74.9063 35.0433 74.7319 34.9612C74.5473 34.8791 74.3831 34.7663 74.2395 34.6227C74.0958 34.4893 73.983 34.3149 73.8906 34.1097C73.8086 33.9045 73.7573 33.648 73.7573 33.3504C73.7573 33.1145 73.8086 32.8785 73.9009 32.6425C73.9932 32.4168 74.1369 32.2116 74.3215 32.0372C74.5062 31.8628 74.7319 31.7191 74.9987 31.6165C75.2654 31.514 75.5732 31.4524 75.9118 31.4524C76.3017 31.4524 76.6608 31.514 76.9891 31.6371C77.3174 31.7602 77.5944 31.9243 77.8304 32.1501L77.5534 32.7143Z" fill="#001D35"/>
</g>
</g>
</g>
<defs>
<linearGradient id="paint0_linear_1417_6601" x1="0.38978" y1="13.7697" x2="76.5504" y2="14.3423" gradientUnits="userSpaceOnUse">
<stop stop-color="#172BE8"/>
<stop offset="0.9898" stop-color="#0AE8F8"/>
</linearGradient>
<linearGradient id="paint1_linear_1417_6601" x1="0.393039" y1="13.3346" x2="76.5535" y2="13.9072" gradientUnits="userSpaceOnUse">
<stop stop-color="#172BE8"/>
<stop offset="0.9898" stop-color="#0AE8F8"/>
</linearGradient>
<linearGradient id="paint2_linear_1417_6601" x1="0.395691" y1="12.9884" x2="76.5562" y2="13.5609" gradientUnits="userSpaceOnUse">
<stop stop-color="#172BE8"/>
<stop offset="0.9898" stop-color="#0AE8F8"/>
</linearGradient>
<clipPath id="clip0_1417_6601">
<rect width="79" height="38.987" fill="white" transform="translate(0 0.0065918)"/>
</clipPath>
</defs>
</svg>
